# xmcd
#
# Track frame offsets: 
#        150
#        20313
#        42450
#        63541
#        90126
#        105488
#        125123
#        149096
#        179161
#        208411
#        229743
#        265368
#        282288
#        299644
#
# Disc length: 4291 seconds
#
# Revision: 0
# Processed by: cddbd v1.5.2PL0 Copyright (c) Steve Scherf et al.
# Submitted via: ExactAudioCopy v1.0b1
#
DISCID=e510c10e
DTITLE=Real de Catorce - Recopilacion CD 2
DYEAR=2012
DGENRE=Blues
TTITLE0=La Medicina
TTITLE1=Voy a Morir
TTITLE2=El Suicidio del Cisne
TTITLE3=Blues del Atajo (En Vivo)
TTITLE4=Híkuri
TTITLE5=Lila
TTITLE6=Prendas de Algodón
TTITLE7=Sola
TTITLE8=El Misterio de las Cosas
TTITLE9=Adiós, Partí
TTITLE10=Soledad y Sol (En Vivo)
TTITLE11=El Anticuario
TTITLE12=Mercado de Ángeles
TTITLE13=Tres Días
EXTD=
EXTT0=
EXTT1=
EXTT2=
EXTT3=
EXTT4=
EXTT5=
EXTT6=
EXTT7=
EXTT8=
EXTT9=
EXTT10=
EXTT11=
EXTT12=
EXTT13=
PLAYORDER=
